<?xml version="1.0" encoding="UTF-8"?><svg id="b" xmlns="http://www.w3.org/2000/svg" viewBox="0 0 639.2058297 1077.0322742"><defs><style>.d{fill:#fde503;}.e{fill:#77868d;}.f{fill:#79878e;}.g{fill:#fde505;}.h{fill:#fedc00;}.i{fill:#f08722;}.j{fill:#f08626;}.k{fill:#fde405;}.l{fill:#f08423;}.m{fill:#f18b20;}.n{fill:#f08525;}</style></defs><g id="c"><path class="h" d="M601.7778071,154.8938165c.0148423.2134544.7687011,1.2736424,1.2572026,1.5458435,7.9782959,4.4456376,11.061933,14.7548538,6.0452558,23.001175l-.9461726,1.555301c-.1915099.3148005-1.1801578-.6245545-1.3290694-.6777944-2.6929926-3.6401301-6.4171072-6.5097511-10.9743621-8.4886679l-37.8408221-16.4317864L273.8575943,33.3514408c-2.3253638-.9988391-6.2859248-1.5411975-7.7080212-.0921852-2.0832468,2.1226764-3.2094248,5.7330073-3.2089136,9.0262654l.0284898,183.5257438c.0009514,6.1289871,2.8193055,11.3596705,7.3758878,14.7028367,3.9392476,2.8902274,7.8646376,5.8138734,12.4678241,7.7968433l74.5896951,32.1318976c.4198672.3181221,1.2204262.9354628,1.6914942,1.1338788l-1.7091377.7630282,19.4673974,8.4844777c1.2648774.5512716,3.6654814.648405,4.8562605.6694908l181.4697918,78.2536499,47.9181492,21.8697815c4.7599684,2.1724434,9.1471137,5.6619719,11.8107096,10.0690914,8.5279063,14.1100614,3.559126,32.0395794-10.4857306,40.3291449-4.9471368,2.9199027-9.599239,4.8325981-15.148629,6.897307l-237.4158598,88.3330656c-1.0330218.0242865-4.0496959.4733315-5.2381965.0077771l-29.4731355-11.5450909,1.5948866-2.0672595,264.4579192-98.9281295c4.281789-1.601727,13.6904637-4.6385558,10.5782273-10.0998868l-43.9280442-20.1059256-212.3359368-92.3925342c-.710193-1.0117327-1.9822094-2.0245683-3.3021925-2.600193l-15.9060152-6.9363727c-2.4083647-1.0502514-4.7172267-1.7452121-7.1402437-1.6661648l-38.4915077-16.3048235c-15.1802045-6.430264-33.6786434-16.6215369-39.1390991-33.0130664-1.8181494-5.4578319-3.2948112-11.082328-3.2947055-17.1494663l.0031849-182.8110245c.0000962-5.5237785,1.6008174-10.7136984,3.3642907-15.4778872,3.3332722-9.0051479,10.4661189-14.8612305,19.3932738-17.6822231,4.2680509-1.3487097,8.6305666-2.1419692,12.9187719-.8645759,4.8027172,1.4306589,9.0275931,2.6476752,13.7505214,4.7810789l305.2976115,137.9066163c3.444677,1.5560022,6.0279097,3.1070833,8.8111945,4.5972099Z"/><path class="m" d="M320.636947,294.5660334c2.269968.2897281,4.6383416,1.0974211,6.9542351,2.1190589l12.5105106,5.5189116-1.3431654,1.4389751L41.0167382,415.5163097c-9.3104075,3.4982872-14.8064277,12.1711113-14.8066612,21.8355056l-.0044789,185.4022951c-.0001015,4.2017761,1.5200686,8.7582626,4.8189056,11.3587003l396.6973371,161.805023c5.3578848,2.1853756,12.2044,2.3334422,15.9727572-2.0392801,3.9427796-4.5751183,6.7662561-11.3390691,6.7695305-17.9954177l.0811269-164.9178318c.0071914-14.6190492-14.3456921-23.3187698-26.229312-27.9241213l-91.4914908-35.4564075c-.393211-.3437868-1.1145289-1.0142387-1.5791283-1.1871415l1.1805833.0051937c.2818757.00124.3056984-1.0280235.04013-1.1183465l-1.2658109-.4305174-30.9348543-12.1680025c-.5341121-.2100891-1.9086148.1458917-2.0734109.5330634l-234.6825741-91.751278c-4.3918303-1.7170258-6.4158635-6.0384476-4.9372212-9.9906195,1.3374518-3.5747924,5.5170033-6.40736,9.8762171-4.6959596l250.6498682,98.403588c.9075486.356298,1.9483638.4163096,2.463296.2390676l.6978972,1.1319298-2.3704556.5454437,33.6721072,13.3257058c1.0595126.4193011,2.4705504.3017385,3.1711616-.2547452l75.6476001,29.5279044c5.8256552,2.273957,10.8978823,5.3535172,15.9085144,8.8559284,11.1940907,7.8246233,17.7756918,19.7420114,17.7759593,33.7366641l.0030778,160.9969897c.0001623,8.4892158-2.2224956,16.4166375-5.7270036,23.654117-5.4320992,11.218324-19.4435353,19.1362184-30.8822459,15.6032827-5.0751117-1.5674882-9.5606977-3.0838882-14.6825936-5.1759063L23.3832243,647.5084888c-7.7957234-3.1841323-12.574143-15.3924622-12.5767624-23.1800425l-.0631403-187.721489c-.0050457-15.0011922,8.722606-27.3437982,21.3747456-34.0340788,4.6597362-2.4640056,8.9681457-3.7744063,14.1367375-5.7015517l274.3821423-102.3052934Z"/><path class="m" d="M380.876623,287.9362831c-1.4609184-.1423936-3.5004381-.4273435-5.0107586-1.0739116l-12.6611439-5.4202354c-.6452348-.276225-1.7070768-1.6140622-1.867157-2.0681016l235.5646131-88.6466777c4.2865282-1.6130881,7.4690743-3.5665995,9.9008756-6.7470726l.6466426.1676067-.2283122,1.0100975c-.5992972,2.6514076,4.1925386-3.1157102,6.4127461-7.8113982,2.4200571-5.1183652,1.2847917-10.5686242-.6959259-15.8407813,10.6811387,6.4737798,13.7699673,21.1765293,6.0116247,31.7546557-4.7057465,6.4160588-7.2179574,8.3211001-19.8146535,13.0935598-55.3297966,20.9625776-162.7743213,61.345783-218.2585511,81.5822588Z"/><path class="d" d="M326.7405564,523.6411848l-1.5948866,2.0672595,29.4731355,11.5450909c1.1885006.4655544,4.2051747.0165094,5.2381965-.0077771-1.1685484.4347707-2.7733519,1.2190594-3.9902044,1.7372858l-33.6073528-12.4272911-.6978972-1.1319298,5.179009-1.7826382Z"/><path class="l" d="M322.2594446,526.5557529l33.6073528,12.4272911.8654604,1.1891133c-.7006112.5564836-2.1116491.6740463-3.1711616.2547452l-33.6721072-13.3257058,2.3704556-.5454437Z"/><path class="g" d="M609.141189,159.3129813c3.6363749,4.5993116,4.2310852,10.0231558,3.8108132,15.7954289-1.4555958,3.3133979-3.0389205,6.4264011-5.5023074,9.0394806l-.6466426-.1676067.0019713-3.6619426c.1489115.0532398,1.1375594.9925949,1.3290694.6777944l.9461726-1.555301c5.0166772-8.2463212,1.9330401-18.5555374-6.0452558-23.001175-.4885016-.2722011-1.2423604-1.3323891-1.2572026-1.5458435,2.520026,1.349182,5.3812214,2.1894259,7.363382,4.4191648Z"/><path class="k" d="M345.512722,302.1147087l-2.2849109.0236621c-5.1735593-2.9818591-15.5814512-6.2648892-20.3315806-9.0434243l-3.7319599-2.1829683c2.423017-.0790473,4.731879.6159133,7.1402437,1.6661648l15.9060152,6.9363727c1.3199831.5756247,2.5919995,1.5884603,3.3021925,2.600193Z"/><path class="j" d="M361.3375635,279.3740344c.1600801.4540394,1.2219222,1.7918766,1.867157,2.0681016l12.6611439,5.4202354c1.5103205.6465682,3.5498402.931518,5.0107586,1.0739116-.7222353.2634171-1.9528154,1.2389198-2.5313502,1.7491398l-19.2512221-8.1087017c-.471068-.198416-1.271627-.8157567-1.6914942-1.1338788,1.124389-.3024331,2.9140867-.6846195,3.9350071-1.0688079Z"/><path class="n" d="M343.2278112,302.1383708l-4.4692838,1.5046083,1.3431654-1.4389751-12.5105106-5.5189116c-2.3158935-1.0216379-4.6842671-1.8293308-6.9542351-2.1190589l2.2592835-1.4710869c4.7501294,2.7785351,15.1580213,6.0615652,20.3315806,9.0434243Z"/><path class="d" d="M359.0940506,281.5767211l19.2512221,8.1087017,3.363298,1.8082951c-1.1907791-.0210859-3.5913831-.1182192-4.8562605-.6694908l-19.4673974-8.4844777,1.7091377-.7630282Z"/><path class="i" d="M612.9382029,161.5058088c1.9807176,5.2721572,3.115983,10.7224161.6959259,15.8407813l-.6821266-2.2381799c.420272-5.7722732-.1744383-11.1961174-3.8108132-15.7954289,1.2181956.3856042,2.6177826,1.4781018,3.7970139,2.1928275Z"/><path class="d" d="M331.2453242,546.3976338c.4645994.1729027,1.1859173.8433546,1.5791283,1.1871415l-6.8212199,2.4018429,3.2705746-2.3567453-30.8915604-12.1114529-5.5092589.8399628c1.6082269-.8315424,3.5327278-1.5635041,5.3662855-2.2440954l33.0060508,12.2833465Z"/><path class="l" d="M331.2453242,546.3976338l-33.0060508-12.2833465-.047312-.8952628c.164796-.3871717,1.5392988-.7431526,2.0734109-.5330634l30.9348543,12.1680025,1.2658109.4305174c.2655684.090323.2417458,1.1195865-.04013,1.1183465l-1.1805833-.0051937Z"/><path class="l" d="M613.6341288,177.3465902c-2.2202076,4.695688-7.0120434,10.4628058-6.4127461,7.8113982l.2283122-1.0100975c2.4633869-2.6130795,4.0467116-5.7260827,5.5023074-9.0394806l.6821266,2.2381799Z"/><path class="h" d="M326.0032326,549.9866182l-229.2044994,85.3618751c-6.9511376,2.5887892-13.8589296-1.7048992-15.8540766-8.0404425-1.8425952-5.8511186.9971767-12.8668559,7.6068502-15.3136348l204.3214811-75.6360332,5.5092589-.8399628,30.8915604,12.1114529-3.2705746,2.3567453Z"/><path class="f" d="M301.980081,933.7880764c-12.8898371,34.0453737-48.9564272,48.5846569-82.9305222,39.8236776-21.3553044-5.5069423-38.0048278-21.03741-45.171646-41.9323739-5.2179651-15.213054-5.9955343-31.7121835-2.1995036-47.4281996,5.8077555-24.044795,23.5149184-42.0352043,47.3747169-48.2696456,36.0122077-9.4098027,74.2413589,7.9826048,85.0009656,44.9680096,5.0138339,17.2347076,4.2850499,36.0426183-2.0740106,52.8385319ZM289.9092677,906.9311801c.3944494-10.0411496-1.0674751-19.707417-5.0515777-28.8741097-6.2904431-14.4731612-18.6339959-24.9616754-34.0707221-28.4156136-23.565613-5.2727613-47.4183157,4.3184466-58.126826,26.5100765-7.9661088,16.5084529-7.7549666,37.7422175-.9936906,54.4651956,7.7271341,19.1118797,25.5536169,30.5948835,46.0286993,30.7481377,31.5211663.2359331,51.0193822-24.0203757,52.2141171-54.4336864Z"/><path class="f" d="M603.091588,973.7095582l-19.1797165.0149889-41.508659-73.462343-30.2266393,34.4590679-.0262943,38.9864998-16.8910836.0059885-.004166-137.8634744,16.8976197-.0223362.0547006,76.6953563,66.5740817-76.6832323,19.6341624.1447744-44.846181,51.5096899,48.8985699,83.9141712,1.0966257,1.8883524c.3331048-.2317926-.3308822.4123854-.4730203.4124965Z"/><path class="f" d="M426.4367864,939.8928552l-63.0460808-.0222364-12.2110095,33.8286618-18.5028139-.0341711,52.1817948-137.769206,20.2363073-.0823678,52.0240702,137.8305824-18.3130698.0629522-12.3691983-33.814215ZM421.3431713,925.9962617l-26.5584952-73.0970442-26.421784,73.2211215,52.9802791-.1240773Z"/><polygon class="e" points="140.3260884 973.7204799 34.2435189 973.7241939 34.1901509 959.6472576 116.546399 851.2376289 34.4521485 851.2166426 34.4505973 835.8211788 138.1300346 835.8202506 138.1343966 849.7925135 56.204013 958.1514595 140.3496627 958.1898938 140.3260884 973.7204799"/><polygon class="f" points="538.8122636 1071.2963347 527.7096468 1071.3224713 494.321409 1023.0417096 494.1824343 1071.3492474 483.1549688 1071.348608 483.1480404 1004.237641 494.2788238 1004.2209734 527.677464 1052.6545037 527.7558503 1004.2252335 538.7975401 1004.1767211 538.8122636 1071.2963347"/><path class="f" d="M162.4510887,1049.9005645c-5.9555478,18.5641436-25.554674,26.3326869-43.4314205,20.9924155-19.4198164-5.8012284-27.1205494-26.6887634-21.6764856-44.8649291,5.7396366-19.1629985,26.4036896-26.9228847,44.5312346-21.1890845,19.3444645,6.1187157,26.3859227,26.9534779,20.5766714,45.0615981ZM130.4451817,1062.5009901c9.3497303-.1443929,17.0016503-5.4927071,20.2155048-14.0136481,2.4725088-6.5553997,2.6362181-13.7287749.5361714-20.3997587-2.9618495-9.4085764-11.2265578-15.1123914-20.981061-15.1614443-9.717699-.0488678-18.0725926,5.5266553-21.1413843,14.8365633-2.2801327,6.9173237-2.0958743,14.4415585.6334276,21.2173948,3.4269927,8.5079419,11.3180702,13.6663599,20.7373415,13.520893Z"/><path class="f" d="M466.7608591,1050.4552286c-6.4014423,18.8645993-27.0253641,26.1526447-44.7522556,19.9353347-18.0095216-6.3164362-25.0817539-25.7806329-20.5042546-43.2041556,2.6619563-10.1323131,9.8080995-18.1492131,19.6731273-21.7868658,18.5700361-6.8475571,40.6824801,1.0109521,46.2632128,21.3302037,2.1648375,7.8820973,1.944201,15.9926488-.6798299,23.7254829ZM435.0956564,1062.5025858c9.0916606-.1895706,16.5501956-5.3180322,19.8595195-13.5247907,2.6764912-6.6374031,2.8951248-13.9816823.7631157-20.8228026-2.9672104-9.5210867-11.3933796-15.2787826-21.2606715-15.2295848-9.7146577.0484368-17.9684,5.7054541-20.9562492,15.0481353-2.1077406,6.5906767-1.9826958,13.6691187.3737222,20.1918615,3.2462336,8.9858196,11.4254558,14.5414194,21.2205633,14.3371812Z"/><path class="f" d="M291.9551455,1004.1893195l-.0048715,42.0750051c-.0012749,11.0112755-5.1186489,20.5541419-15.7391336,24.2835478-7.6550454,2.6880855-16.0385192,2.6719045-23.6845413-.0732466-10.5103914-3.7735455-15.559278-13.3226135-15.565047-24.1873691l-.022341-42.075341,11.6650593-.0043423.1883692,43.9841223c.0349791,8.1676043,6.6400998,13.9245367,14.4282388,14.2792003,10.3924926.4732632,17.1862261-6.0512008,17.195527-16.0345584l.0393401-42.2264218,11.4993999-.0205962Z"/><path class="f" d="M598.3685689,1066.3281043c-10.9364531,9.952201-33.4094078,6.6437366-45.4639641-.9540226l5.5824366-9.1983607c6.8175197,4.0804512,14.0676464,6.4846855,21.9794365,6.0908271,6.1452221-.3059166,12.0525729-3.3364879,11.4989981-9.8406352-1.1745952-13.8007367-36.4520866-5.3562386-37.7835275-28.675742-.6960974-12.1917881,8.9774637-19.589619,20.3339636-20.5327245,9.3676829-.7779434,18.4846363,1.1179525,27.0006621,5.2885486l-4.2946284,9.1845175c-7.4881425-3.6098683-21.2669396-7.214567-28.162766-1.5436132-2.1452064,1.7641637-3.0724404,4.1923829-2.804318,6.8978637.2330845,2.3519315,1.9073834,4.6295342,4.4428539,5.8859808,11.2360859,5.5680164,29.9528017,3.9405207,33.1641035,20.4601016,1.1862291,6.1022005-.8031153,12.6692238-5.4932504,16.937259Z"/><path class="f" d="M75.4301491,1069.0177433c-11.913265,6.3527185-30.1267063,3.465532-41.7086568-3.649947l5.5815495-9.1934189c7.6369497,5.0903164,23.3620532,9.2064067,30.6548956,3.1672632,2.2590396-1.8706923,3.1732179-4.5666527,2.7319876-7.5585375-1.8914424-12.8254509-36.9083779-5.0798332-37.7049754-28.419364-.200817-5.8837432,1.9937528-11.2436726,6.6378629-14.9464808,10.7950334-8.6070177,29.0312809-5.7085322,40.7140184.0822195l-4.3082779,9.2018642c-7.4536221-3.6414942-21.3181795-7.2118024-28.1592319-1.5460341-2.1268933,1.7614957-3.0840639,4.2061286-2.8040977,6.879088,1.4050184,13.4143211,36.7707569,4.8089859,37.7896565,28.889712.3052118,7.2133909-2.9922689,13.6635411-9.4247309,17.0936353Z"/><polygon class="e" points="338.7824134 1071.2899175 327.2739471 1071.3687514 327.2689274 1014.5001037 304.033455 1014.4333975 304.0880226 1004.1832853 362.0549281 1004.1815844 362.0775024 1014.4440281 338.7850593 1014.4745867 338.7824134 1071.2899175"/><polygon class="f" points="225.8528111 1061.1887784 225.8262501 1071.3464392 178.6606737 1071.3556406 178.6629855 1004.2266558 190.1997993 1004.2133673 190.2010834 1061.146836 225.8528111 1061.1887784"/><polygon class="f" points="386.033359 1071.3003686 374.4097882 1071.3496937 374.4105473 1004.2308243 386.0298752 1004.2142809 386.033359 1071.3003686"/></g></svg>
